<svg id="Слой_1" enable-background="new 0 0 512 512" height="512" viewBox="0 0 512 512" width="512" xmlns="http://www.w3.org/2000/svg"><g><g><path d="m490.818 184.897c0 15.012-12.285 27.304-27.304 27.304h-136.521c-2.453 0-4.639-.267-6.826-1.093-1.367 0-2.453-.547-3.826-1.093-3.273-1.36-6.279-3.28-8.733-5.733-2.46-2.453-4.373-5.466-5.733-8.732-.547-1.373-1.093-2.466-1.093-3.826-.82-2.187-1.093-4.373-1.093-6.826v-136.522c0-15.012 12.285-27.304 27.304-27.304s27.304 12.292 27.304 27.304v70.447l89.832-89.832c10.646-10.652 28.124-10.652 38.77 0 10.652 10.652 10.652 28.117 0 38.77l-89.832 89.832h70.447c15.019 0 27.304 12.292 27.304 27.304z"/></g><g><path d="m488.085 444.833-43.136 42.863c-15.565 15.571-36.043 24.304-56.795 24.304-1.64 0-3.007 0-4.639-.28-205.874-12.559-370.793-177.477-383.351-383.338-1.367-22.398 7.373-44.783 24.031-61.434l42.863-43.143c18.024-17.745 42.869-26.211 67.986-23.211 25.124 3 47.236 17.198 60.341 39.05l34.95 58.421c12.832 21.305 9.559 48.875-8.466 66.621l-38.77 39.05c30.037 51.062 73.447 94.471 125.055 125.055l39.043-38.77c17.752-18.025 45.323-21.305 66.621-8.466l58.435 34.944c21.845 13.105 36.043 35.223 39.043 60.354 3.28 25.117-5.459 49.955-23.211 67.98z"/></g></g></svg>