<svg width="1175" height="969" viewBox="0 0 1175 969" fill="none" xmlns="http://www.w3.org/2000/svg">
<path d="M1152.66 715.967L659.91 951.499C622.207 969.578 579.392 973.775 538.879 963.508L254 891.582V614.15C353.56 577.283 464.428 589.035 554.158 646.11L570.262 656.375L782.669 694.211H782.733C797.686 696.665 808.677 709.642 808.741 724.944C808.741 726.687 808.613 728.366 808.421 730.174C804.843 756.904 782.093 776.725 755.382 776.338H511.205C499.958 776.209 490.116 783.957 487.625 795.062C486.155 802.035 487.88 809.331 492.353 814.883C496.763 820.436 503.473 823.664 510.502 823.664H754.287C807.773 824.245 852.314 782.278 855.509 728.302C856.02 715.583 854.103 702.863 849.886 690.855L1129.27 641.527V641.463C1131.5 641.075 1133.74 640.881 1136.04 640.881C1154.25 640.946 1170.04 653.73 1174.06 671.744C1178.03 689.692 1169.15 708.089 1152.66 715.967Z" fill="#380920"/>
<path d="M0 582H206V921H0V582Z" fill="#380920"/>
<path d="M552.962 414.524C558.131 428.712 560.338 443.928 559.392 459.078L554.223 539.777C553.403 553.515 555.105 567.318 559.392 580.351C569.669 585.744 579.756 591.522 589.591 597.814L594.572 601.024L685.483 617.33L688.446 558.652V558.716C690.779 530.982 702.946 505.11 722.806 485.914C765.803 444.378 833.197 444.378 876.195 485.914C896.055 505.11 908.222 530.982 910.555 558.716L913.644 619L1032.23 597.878C1041.69 580.095 1046.04 559.936 1044.78 539.777L1039.61 459.078C1038.66 443.927 1040.87 428.711 1046.04 414.524L1116.97 220.394C1136.38 167.108 1127.24 107.339 1092.82 62.5917C1058.33 17.8442 1003.48 -5.45901 948.003 1.08869C922.154 4.10599 897.063 12.2594 874.24 25.0986L799.531 66.9569L724.823 25.0986H724.76C701.937 12.2587 676.844 4.10616 650.997 1.08869C595.517 -5.45967 540.668 17.8442 506.181 62.5917C471.758 107.339 462.617 167.108 482.034 220.394L552.962 414.524ZM1049.69 91.8558C1079.26 128.256 1087.52 177.947 1071.44 222.309L1024.41 351.027L980.594 334.4L1027.63 205.681C1037.65 178.075 1032.92 147.132 1015.08 124.019C997.238 100.842 968.868 88.7742 940.183 92.1762L934.824 44.8616H934.761C978.451 39.6614 1021.7 57.3162 1049.69 91.8558Z" fill="#380920"/>
</svg>
