<svg xmlns="http://www.w3.org/2000/svg" version="1.1" viewBox="-5.0 -10.0 110.0 135.0">
 <path d="m84.543 64.379-30.121 14.25c-2.3047 1.0938-4.9219 1.3477-7.3984 0.72656l-17.414-4.3516v-16.785c6.0859-2.2305 12.863-1.5195 18.348 1.9336l0.98438 0.62109 12.984 2.2891h0.003907c0.91406 0.14844 1.5859 0.93359 1.5898 1.8594 0 0.10547-0.007812 0.20703-0.019531 0.31641-0.21875 1.6172-1.6094 2.8164-3.2422 2.793h-14.926c-0.6875-0.007812-1.2891 0.46094-1.4414 1.1328-0.089844 0.42188 0.015625 0.86328 0.28906 1.1992 0.26953 0.33594 0.67969 0.53125 1.1094 0.53125h14.902c3.2695 0.035157 5.9922-2.5039 6.1875-5.7695 0.03125-0.76953-0.085937-1.5391-0.34375-2.2656l17.078-2.9844v-0.003906c0.13672-0.023438 0.27344-0.035156 0.41406-0.035156 1.1133 0.003906 2.0781 0.77734 2.3242 1.8672 0.24219 1.0859-0.30078 2.1992-1.3086 2.6758z"/>
 <path d="m14.09 55.688h12.922v21.379h-12.922z"/>
 <path d="m47.867 45.535c0.32031 0.86328 0.45703 1.7891 0.39844 2.7109l-0.32031 4.9102c-0.050781 0.83594 0.054688 1.6758 0.32031 2.4688 0.63672 0.32812 1.2617 0.67969 1.8711 1.0625l0.30859 0.19531 5.6328 0.99219 0.18359-3.5703v0.003906c0.14453-1.6875 0.89844-3.2617 2.1289-4.4297 2.6641-2.5273 6.8398-2.5273 9.5039 0 1.2305 1.168 1.9844 2.7422 2.1289 4.4297l0.19141 3.668 7.3477-1.2852c0.58594-1.082 0.85547-2.3086 0.77734-3.5352l-0.32031-4.9102c-0.058593-0.92188 0.078125-1.8477 0.39844-2.7109l4.3945-11.812c1.2031-3.2422 0.63672-6.8789-1.4961-9.6016-2.1367-2.7227-5.5352-4.1406-8.9727-3.7422-1.6016 0.18359-3.1562 0.67969-4.5703 1.4609l-4.6289 2.5469-4.6289-2.5469h-0.003906c-1.4141-0.78125-2.9688-1.2773-4.5703-1.4609-3.4375-0.39844-6.8359 1.0195-8.9727 3.7422-2.1328 2.7227-2.6992 6.3594-1.4961 9.6016zm30.777-19.633c1.832 2.2148 2.3438 5.2383 1.3477 7.9375l-2.9141 7.832-2.7148-1.0117 2.9141-7.832c0.62109-1.6797 0.32812-3.5625-0.77734-4.9688-1.1055-1.4102-2.8633-2.1445-4.6406-1.9375l-0.33203-2.8789h-0.003906c2.707-0.31641 5.3867 0.75781 7.1211 2.8594z"/>
<text x="0.0" y="117.5" font-size="5.0" font-weight="bold" font-family="Arbeit Regular, Helvetica, Arial-Unicode, Arial, Sans-serif" fill="#000000">Created by MOHAMMED SALIM</text><text x="0.0" y="122.5" font-size="5.0" font-weight="bold" font-family="Arbeit Regular, Helvetica, Arial-Unicode, Arial, Sans-serif" fill="#000000">from Noun Project</text></svg>