<svg id="Layer_1" viewBox="0 0 128 128" xmlns="http://www.w3.org/2000/svg" data-name="Layer 1"><path d="m25.56281 33.99994a2 2 0 0 0 0-4c-2.71942 0-5.96216 1.85156-8.26172 4.71777-3.73877 4.667-4.28558 9.40332-1.72046 14.90674a1.99966 1.99966 0 0 0 3.62451-1.69045c-1.92456-4.12939-1.572-7.23389 1.2157-10.71387 1.69708-2.11423 3.8706-3.22019 5.14197-3.22019z"/><path d="m121.915 106.91479a7.12761 7.12761 0 0 0 .00006-10.0675l-11.76076-11.76229a7.11736 7.11736 0 0 0 -8.44977-1.21143l-1.38873-1.38885a23.83145 23.83145 0 1 0 -2.81836 2.83752l1.38232 1.38251a7.12856 7.12856 0 0 0 1.208 8.44788l11.7608 11.76221a7.11739 7.11739 0 0 0 10.06647-.00006zm-25.76961-25.7727a20 20 0 1 1 0-28.2843 19.934 19.934 0 0 1 0 28.2843zm6.77051 11.18213a3.11871 3.11871 0 1 1 4.41028-4.41077l11.76082 11.76215a3.11937 3.11937 0 0 1 0 4.41083h-.00006a3.11819 3.11819 0 0 1 -4.41022 0z"/><path d="m92.96375 65.24506-5.95044-3.25439-3.25354-5.9502a2 2 0 0 0 -3.50934-.00047l-3.25443 5.95066-5.94946 3.25439a2.00066 2.00066 0 0 0 0 3.50977l5.94946 3.2544 3.25446 5.95068a2 2 0 0 0 3.50934-.00049l3.25354-5.9502 5.95044-3.25439a2.00066 2.00066 0 0 0 0-3.50977zm-8.38375 3.53564a2.00293 2.00293 0 0 0 -.79486.79541l-1.78 3.25586-1.78107-3.25635a2.00467 2.00467 0 0 0 -.7948-.79492l-3.25543-1.78076 3.25543-1.78076a2.00467 2.00467 0 0 0 .7948-.79492l1.78107-3.25635 1.78 3.25586a2.00293 2.00293 0 0 0 .79486.79541l3.25641 1.78076z"/><path d="m101.04285 13.75482 5.94946 3.25439 3.25446 5.95068a2 2 0 0 0 3.50934-.00049l3.25354-5.9502 5.95044-3.25439a2.00066 2.00066 0 0 0 0-3.50977l-5.95044-3.25439-3.25354-5.9502a2 2 0 0 0 -3.50934-.00045l-3.25446 5.95068-5.94946 3.25439a2.00066 2.00066 0 0 0 0 3.50977zm8.38275-3.53564a2.00521 2.00521 0 0 0 .79486-.79492l1.781-3.25635 1.78 3.25586a2.00332 2.00332 0 0 0 .79486.79541l3.25641 1.78076-3.25641 1.78076a2.00332 2.00332 0 0 0 -.79486.79541l-1.78 3.25586-1.781-3.25635a2.00521 2.00521 0 0 0 -.79486-.79492l-3.25543-1.78076z"/><path d="m9.85358 60.15253c2.25751 4.01978 4.38977 7.81653 5.1748 11.87079.90118 4.72076.28912 9.63293-.35895 14.83356-.3158 2.53467-.6424 5.1557-.78778 7.79236-.71905 13.33076 6.92725 24.69634 22.11194 32.87267a3.99973 3.99973 0 0 0 5.64954-4.9032c-1.88013-5.14178-5.62152-20.15881-.40979-27.75342 2.28015-3.32263 6.132-4.99194 11.77515-5.10205 5.64795.11023 9.50189 1.78247 11.78125 5.11108 5.225 7.62994 1.47131 22.61444-.41589 27.74438a3.99952 3.99952 0 0 0 5.64948 4.9032c15.18475-8.17633 22.831-19.54187 22.11237-32.86786-.02783-.505-.0675-1.00818-.10724-1.51123a27.73041 27.73041 0 0 1 -3.92316 1.18658c.01166.18.02673.36017.03668.5401.73187 13.57117-8.36346 22.85675-20.01459 29.13043 0 0 13.883-37.73743-15.1189-38.23743-29.00189.5-15.1189 38.23743-15.1189 38.23743-11.65118-6.27368-20.74646-15.55927-20.01453-29.13043.43195-7.83319 2.57983-15.74969 1.0799-23.60669-1.34387-6.94037-5.87952-12.83313-8.80731-19.09491-3.4798-7.46417-2.73584-14.70209 2.4718-21.202 3.0235-3.76855 7.83466-6.96576 12.943-6.96588a12.009 12.009 0 0 1 1.52882.09711c5.14093.6604 9.33728 2.5755 13.64667 4.25421a1.97964 1.97964 0 0 0 .21161.1579 62.82443 62.82443 0 0 0 30.054 7.49072 2 2 0 0 0 0-4 60.11051 60.11051 0 0 1 -12.37135-1.30738c7.18463-1.47162 12.7468-5.62787 20.29437-6.59557a12.0134 12.0134 0 0 1 1.52838-.097 15.26594 15.26594 0 0 1 8.49011 2.85089c.06128-.03644.11652-.0802.17932-.11456l3.67719-2.01184a19.88912 19.88912 0 0 0 -12.34657-4.72455 16.07953 16.07953 0 0 0 -2.03693.12952 45.66056 45.66056 0 0 0 -12.17609 3.74768c-4.10162 1.71674-7.97589 3.33826-12.63336 3.33838-4.95239 0-9.00793-1.61951-13.3017-3.33411a50.35467 50.35467 0 0 0 -12.70609-3.75171 16.0794 16.0794 0 0 0 -2.03835-.1297c-5.80662.00018-11.81126 3.16376-16.06248 8.46252-6.12817 7.64887-7.1571 16.42981-2.97723 25.3957 1.01464 2.17016 2.19207 4.26678 3.33081 6.29431z"/><path d="m90.00415 31.99994a2.00012 2.00012 0 0 0 1.03992 1.75488l5.303 2.90088 2.901 5.3042a2 2 0 0 0 3.50934-.00049l2.90009-5.30371 5.304-2.90088a2.00066 2.00066 0 0 0 0-3.50977l-5.304-2.90088-2.90009-5.30371a2 2 0 0 0 -3.5093-.00046l-2.901 5.3042-5.303 2.90088a2.00012 2.00012 0 0 0 -1.03996 1.75486zm8.77625-1.42725a2.00482 2.00482 0 0 0 .79486-.79492l1.42755-2.60986 1.42657 2.60938a2.00293 2.00293 0 0 0 .79486.79541l2.61 1.42725-2.61 1.42725a2.00293 2.00293 0 0 0 -.79486.79541l-1.42657 2.60939-1.42755-2.60986a2.00482 2.00482 0 0 0 -.79486-.79492l-2.609-1.42725z"/></svg>