<svg xmlns="http://www.w3.org/2000/svg" version="1.1" viewBox="-5.0 -10.0 110.0 135.0">
 <path d="m48.125 47.812-37.125-27.844c1.375-0.78125 2.9688-1.2188 4.625-1.2188h68.75c1.6562 0 3.25 0.4375 4.625 1.2188l-37.125 27.844c-1.0938 0.84375-2.6562 0.8125-3.75 0zm44.969-23.094-37.469 28.094c-1.6562 1.25-3.6562 1.875-5.625 1.875-2 0-3.9688-0.625-5.625-1.875l-37.469-28.094c-0.4375 1.0625-0.65625 2.2188-0.65625 3.4062v43.75c0 5.1562 4.2188 9.375 9.375 9.375h68.75c5.1562 0 9.375-4.2188 9.375-9.375v-43.75c0-1.1875-0.21875-2.3438-0.65625-3.4062z"/>
<text x="0.0" y="117.5" font-size="5.0" font-weight="bold" font-family="Arbeit Regular, Helvetica, Arial-Unicode, Arial, Sans-serif" fill="#000000">Created by Fajriah Robiatul Adawiah</text><text x="0.0" y="122.5" font-size="5.0" font-weight="bold" font-family="Arbeit Regular, Helvetica, Arial-Unicode, Arial, Sans-serif" fill="#000000">from Noun Project</text></svg>