<svg xmlns="http://www.w3.org/2000/svg" version="1.1" viewBox="-5.0 -10.0 110.0 135.0">
 <path d="m62.703 36.031c-0.85938 3.8125-3.1875 7.0938-6.4375 9.0312-7.5312 4.7188-17.422-0.59375-19.062-9.0312l-1.3281-5.8438c2.5469-0.15625 6.6719-0.89062 10.797-3.6719 3.9062-2.6719 6.25-4.6406 7.5625-6.3438 1.5 3.2969 5.8125 8.2969 9.9375 9.375zm16.375 32.453c-0.34375-3.9844-2.8438-7.5-6.5-9.1562l-8.5625-3.8594c1.9531 5.125 2.5625 10.531 1.9375 16.219 6.5312 1.1406 5.8125 10.719-0.85938 10.828-6.7812-0.125-7.3594-9.8906-0.70312-10.859 0.67188-6.0312-0.078125-11.766-2.4375-17.125l-4.3438-1.9688-6.8281 14.984v23.016c10.078-0.078125 20.25-1.8281 29.812-5.1406zm-39.078-14.844c-2.0938 2.1562-3.2969 6.7656-3.1094 9.2344 3.5625 0.29688 6.3594 3.2812 6.3594 6.9062v11.391c0 0.4375-0.34375 0.78125-0.78125 0.78125h-2.7188c-0.42188 0-0.78125-0.34375-0.78125-0.78125s0.35938-0.78125 0.78125-0.78125h1.9375v-10.609c0-2.9688-2.4062-5.375-5.375-5.375s-5.3906 2.4062-5.3906 5.375v10.609c1.0156 0.09375 2.5938-0.375 2.625 0.78125 0 0.4375-0.34375 0.78125-0.78125 0.78125h-2.625c-0.42188 0-0.78125-0.34375-0.78125-0.78125v-11.391c0-3.4844 2.5938-6.375 5.9531-6.8594-0.09375-2.25 0.625-5.7812 1.9375-8.0312-2.5938 1.1562-7.1875 3.2656-9.8281 4.4375-3.6562 1.6562-6.1562 5.1562-6.5 9.1094-0.28125 3.125-0.60938 6.8906-0.9375 10.422l-0.57812 6.5625c9.6094 3.3438 19.625 5.0625 29.812 5.1562v-23.031l-6.8281-14.984zm16.562-6.9375c-4.0156 2.2031-9.0938 2.2344-13.125 0.046875v4.3281l6.5625 14.406 6.5625-14.406zm-17.375 5.5938 2.6875-1.2188v-5.3281c-3.0625-2.1094-5.3281-5.5156-6.2031-9.375l-1.5312-6.7656c-0.046875-0.23438 0.015625-0.46875 0.15625-0.65625s0.375-0.29688 0.60938-0.29688c2.1875-0.03125 6.5312-0.5 10.891-3.4375 3.8594-2.6406 6.1875-4.6094 7.3281-6.1875 0.3125-0.42188 0.8125-0.65625 1.3281-0.57812 0.51562 0.0625 0.95312 0.42188 1.1406 0.90625 0.375 1 1.2656 2.3281 2.8906 4.3281 1.75 2.2188 4.1719 3.8438 6.8125 4.5781 0.40625 0.10938 0.64062 0.51562 0.54688 0.92188l-1.625 7.1875c-0.85938 3.8438-3.0781 7.2031-6.1562 9.375 0.046875 0.09375 0.0625 0.1875 0.0625 0.29688v5.0312c2.4688 1.125 7.25 3.2812 9.7344 4.4062 2.0781-5.1562 5.7656-17.25 1.1875-30.109-1.6719-4.6719-4.2344-8.9219-7.6094-12.625-0.90625-1.0156-2.4844-2.3438-4.7656-2.9844-2.6562-0.79688-4.4062 0-6.0781 0.15625-9.3281-3.0625-15.172 8.3906-17.953 15.453-4.4219 12.375-1.1875 24.016 0.92188 29.469zm22.016 24.766c0.125 5.125 7.6562 5.125 7.7812 0-0.17188-5.1406-7.625-5.1406-7.7812 0z"/>
<text x="0.0" y="117.5" font-size="5.0" font-weight="bold" font-family="Arbeit Regular, Helvetica, Arial-Unicode, Arial, Sans-serif" fill="#000000">Created by Gendis Studio</text><text x="0.0" y="122.5" font-size="5.0" font-weight="bold" font-family="Arbeit Regular, Helvetica, Arial-Unicode, Arial, Sans-serif" fill="#000000">from Noun Project</text></svg>