<svg width="1645" height="2176" viewBox="0 0 1645 2176" fill="none" xmlns="http://www.w3.org/2000/svg">
<path d="M1164.03 713.638C1140.92 815.849 1078.33 903.819 990.956 955.759C788.481 1082.27 522.568 939.841 478.477 713.638L442.771 556.969C511.244 552.78 622.144 533.092 733.047 458.528C838.065 386.896 901.077 334.116 936.364 288.454C976.691 376.842 1092.63 510.889 1203.53 539.792L1164.03 713.638ZM1604.27 1583.68C1595.03 1476.86 1527.81 1382.61 1429.52 1338.21L1199.31 1234.74C1251.82 1372.14 1268.21 1517.07 1251.4 1669.56C1426.99 1700.14 1407.67 1956.94 1228.3 1959.86C1045.99 1956.51 1030.44 1694.7 1209.4 1668.73C1227.46 1507.04 1207.3 1353.29 1143.86 1209.62L1027.08 1156.84L843.509 1558.55V2175.6C1114.45 2173.5 1387.93 2126.59 1645 2037.78L1604.27 1583.68ZM553.66 1185.72C497.369 1243.53 465.024 1367.11 470.065 1433.29C565.842 1441.25 641.036 1521.26 641.036 1618.44V1923.83C641.036 1935.56 631.795 1944.78 620.032 1944.78H546.938C535.596 1944.78 525.934 1935.56 525.934 1923.83C525.934 1912.1 535.596 1902.89 546.938 1902.89H599.027V1618.46C599.027 1538.87 534.337 1474.36 454.521 1474.36C374.705 1474.36 309.596 1538.87 309.596 1618.46V1902.89C336.9 1905.4 379.33 1892.83 380.168 1923.83C380.168 1935.56 370.927 1944.78 359.165 1944.78H288.592C277.25 1944.78 267.588 1935.56 267.588 1923.83V1618.44C267.588 1525.03 337.322 1447.53 427.636 1434.55C425.116 1374.23 444.439 1279.56 479.726 1219.24C409.992 1250.23 286.491 1306.79 215.499 1338.2C117.202 1382.61 49.9902 1476.44 40.7472 1582.42C33.1858 1666.2 24.3641 1767.15 15.5427 1861.83L0 2037.77C258.347 2127.41 527.615 2173.49 801.491 2176V1558.55L617.919 1156.84L553.66 1185.72ZM998.927 999.735C890.969 1058.8 754.442 1059.64 646.064 1000.99V1117.03L822.496 1503.24L998.927 1117.03V999.735ZM531.803 1149.7L604.056 1117.03V974.183C521.721 917.631 460.811 826.313 437.287 722.844L396.121 541.463C394.86 535.179 396.541 528.896 400.321 523.869C404.102 518.842 410.403 515.91 416.704 515.91C475.515 515.072 592.295 502.505 709.507 423.752C813.267 352.96 875.857 300.177 906.522 257.869C914.924 246.559 928.366 240.276 942.228 242.37C956.09 244.046 967.853 253.681 972.893 266.666C982.975 293.476 1006.92 329.081 1050.61 382.7C1097.65 442.185 1162.77 485.75 1233.76 505.436C1244.68 508.369 1250.98 519.26 1248.46 530.151L1204.77 722.844C1181.67 825.894 1122.02 915.955 1039.27 974.182C1040.53 976.695 1040.95 979.209 1040.95 982.141V1117.02C1107.32 1147.19 1235.86 1204.99 1302.65 1235.15C1358.52 1096.92 1457.66 772.69 1334.58 427.948C1289.63 302.697 1220.74 188.757 1130 89.4791C1105.64 62.2515 1063.21 26.6432 1001.88 9.46912C930.468 -11.8948 883.42 9.46912 838.471 13.6581C587.686 -68.4457 430.574 238.605 355.807 427.944C236.925 759.71 323.881 1071.8 380.592 1217.99L531.803 1149.7ZM1123.7 1813.66C1127.06 1951.06 1329.54 1951.06 1332.9 1813.66C1328.28 1675.85 1127.9 1675.85 1123.7 1813.66Z" fill="#380920"/>
</svg>
