<svg height="512pt" viewBox="-24 0 512 512.002" width="512pt" xmlns="http://www.w3.org/2000/svg"><path d="m108.390625 172.429688c1.296875.273437 22.039063 4.539062 49.085937 4.539062 13.972657 0 29.625-1.140625 45.140626-4.554688 4.054687-.890624 6.617187-4.898437 5.722656-8.949218-.890625-4.054688-4.898438-6.617188-8.949219-5.722656-42.328125 9.308593-87.460937.078124-87.914063-.015626-4.054687-.851562-8.039062 1.746094-8.894531 5.804688-.851562 4.0625 1.75 8.046875 5.808594 8.898438zm0 0"/><path d="m417.183594 1.457031h-56.097656c-4.148438 0-7.515626 3.363281-7.515626 7.511719v163.796875c0 4.148437 3.367188 7.515625 7.515626 7.515625h44.710937v167.894531c0 4.148438 3.363281 7.511719 7.511719 7.511719 4.148437 0 7.515625-3.363281 7.515625-7.511719v-331.480469c15.574219 1.808594 27.703125 15.078126 27.703125 31.132813v102.570313c0 4.148437 3.363281 7.511718 7.511718 7.511718 4.148438 0 7.511719-3.363281 7.511719-7.511718v-102.570313c0-25.570313-20.800781-46.371094-46.367187-46.371094zm-11.386719 100.617188h-37.199219v-17.863281h37.199219zm0-32.890625h-37.199219v-17.863282h37.199219zm-37.199219 47.917968h37.199219v17.863282h-37.199219zm37.199219-100.617187v19.808594h-37.199219v-19.808594zm-37.199219 148.769531v-15.265625h37.199219v15.265625zm0 0"/><path d="m456.039062 175.941406c-4.148437 0-7.511718 3.363282-7.511718 7.511719v313.519531h-27.707032v-117.742187c0-4.148438-3.363281-7.511719-7.511718-7.511719-4.148438 0-7.511719 3.363281-7.511719 7.511719v125.257812c0 4.148438 3.363281 7.511719 7.511719 7.511719h42.730468c4.148438 0 7.511719-3.363281 7.511719-7.511719v-321.035156c0-4.148437-3.363281-7.511719-7.511719-7.511719zm0 0"/><path d="m164.261719 49.785156 21.136719 11.5625 11.558593 21.136719c1.316407 2.40625 3.84375 3.90625 6.59375 3.90625 2.746094 0 5.273438-1.5 6.589844-3.90625l11.558594-21.136719 21.136719-11.5625c2.410156-1.316406 3.90625-3.84375 3.90625-6.589844 0-2.746093-1.496094-5.273437-3.90625-6.589843l-21.136719-11.5625-11.558594-21.132813c-1.316406-2.410156-3.84375-3.910156-6.589844-3.910156-2.75 0-5.277343 1.5-6.59375 3.90625l-11.558593 21.136719-21.136719 11.558593c-2.410157 1.320313-3.910157 3.847657-3.910157 6.59375 0 2.746094 1.5 5.273438 3.910157 6.589844zm30.277343-12.613281c1.261719-.691406 2.296876-1.726563 2.984376-2.988281l6.027343-11.015625 6.023438 11.015625c.6875 1.261718 1.726562 2.296875 2.984375 2.988281l11.015625 6.023437-11.015625 6.023438c-1.261719.6875-2.296875 1.726562-2.984375 2.984375l-6.023438 11.015625-6.027343-11.015625c-.6875-1.257813-1.722657-2.296875-2.984376-2.984375l-11.015624-6.023438zm0 0"/><path d="m334.28125 150.5625-27.234375-14.894531-14.898437-27.234375c-1.316407-2.410156-3.84375-3.910156-6.589844-3.910156s-5.273438 1.5-6.589844 3.910156l-12.378906 22.632812c-13.121094-7.578125-28.546875-11.5625-45.128906-11.5625-10.40625 0-20.339844 1.148438-29.523438 3.414063-23.445312 5.777343-48.230469 5.777343-71.675781 0-9.183594-2.265625-19.121094-3.414063-29.523438-3.414063-26.519531 0-49.890625 10.199219-65.808593 28.714844-2.707032 3.144531-2.347657 7.890625.796874 10.59375 1.417969 1.21875 3.160157 1.816406 4.894532 1.816406 2.113281 0 4.214844-.886718 5.699218-2.613281 16.6875-19.410156 38.800782-23.484375 54.414063-23.484375 9.195313 0 17.917969 1.003906 25.929687 2.976562 25.800782 6.359376 53.070313 6.359376 78.867188 0 8.011719-1.976562 16.734375-2.976562 25.929688-2.976562 11.699218 0 22.652343 2.328125 32.285156 6.785156l-16.910156 9.25c-2.410157 1.316406-3.910157 3.84375-3.910157 6.589844s1.5 5.273438 3.910157 6.59375l27.234374 14.894531 14.894532 27.234375c1.316406 2.410156 3.84375 3.90625 6.59375 3.90625 2.742187 0 5.273437-1.496094 6.589844-3.90625l2.65625-4.855468c1.570312 8.714843 2.363281 18.183593 2.363281 28.339843 0 40.050781-22.257813 70.976563-41.898438 98.261719-16.171875 22.464844-31.449219 43.6875-31.449219 66.546875 0 10.0625.585938 20.980469 1.15625 31.535156 1.453126 27.066407 3.101563 57.738281-6.445312 67.8125-2.234375 2.359375-5.105469 3.457031-9.035156 3.457031-2.835938 0-5.023438-.972656-7.097656-3.152343-13.539063-14.234375-11.046876-64.230469-9.847657-88.257813.300781-5.976562.535157-10.691406.535157-14.050781 0-14.890625-7.074219-23.992187-13.007813-29-6.734375-5.6875-15.699219-9.082031-23.980469-9.082031s-17.246094 3.394531-23.980468 9.082031c-5.933594 5.007813-13.007813 14.105469-13.007813 29 0 3.359375.234375 8.078125.535156 14.050781 1.199219 24.027344 3.695313 74.023438-9.847656 88.257813-2.074219 2.179687-4.261719 3.152343-7.097656 3.152343-3.925781 0-6.796875-1.097656-9.035157-3.457031-9.542968-10.074219-7.898437-40.746093-6.441406-67.8125.566406-10.554687 1.152344-21.472656 1.152344-31.535156 0-22.859375-15.277344-44.078125-31.449219-66.546875-19.636719-27.285156-41.898437-58.210938-41.898437-98.261719 0-16.425781 2.070312-31.097656 6.160156-43.609375 1.285156-3.945312-.867188-8.1875-4.8125-9.476562-3.941406-1.285156-8.183594.867187-9.472656 4.808594-4.578125 14.023437-6.902344 30.265624-6.902344 48.277343 0 44.898438 23.765625 77.910157 44.730469 107.039063 15.355469 21.332031 28.617187 39.753906 28.617187 57.769531 0 9.65625-.574218 20.371094-1.132812 30.730469-1.773438 33.011718-3.445313 64.191406 10.542968 78.949218 5.125 5.410157 11.832032 8.152344 19.9375 8.152344 6.898438 0 13.117188-2.707031 17.988282-7.820312 16.589844-17.445313 15.910156-60.4375 13.964844-99.367188-.273438-5.535156-.515626-10.316406-.515626-13.300781 0-7.328125 2.585938-13.21875 7.675782-17.519531 4.835937-4.085938 10.550781-5.539063 14.289062-5.539063 3.738282 0 9.453125 1.453125 14.289063 5.539063 5.09375 4.296875 7.675781 10.191406 7.675781 17.519531 0 2.984375-.238281 7.761719-.515625 13.300781-1.941406 38.929688-2.625 81.921875 13.96875 99.367188 4.867187 5.113281 11.085937 7.820312 17.984375 7.820312 8.105469 0 14.816406-2.742187 19.9375-8.152344 13.992188-14.757812 12.316406-45.941406 10.542969-78.949218-.558594-10.359375-1.132813-21.074219-1.132813-30.730469 0-18.015625 13.261719-36.4375 28.617188-57.769531 20.96875-29.128906 44.730468-62.144532 44.730468-107.039063 0-17.8125-2.273437-33.867187-6.75-47.792969l1.597657-2.925781 27.234375-14.898437c2.410156-1.316406 3.910156-3.84375 3.910156-6.589844s-1.496094-5.273438-3.90625-6.59375zm-36.375 15.953125c-1.261719.6875-2.296875 1.726563-2.988281 2.984375l-9.359375 17.113281-9.359375-17.113281c-.691407-1.261719-1.726563-2.296875-2.988281-2.984375l-17.113282-9.359375 14.882813-8.140625c1.679687-.402344 3.230469-1.375 4.328125-2.878906.066406-.089844.121094-.1875.183594-.28125.261718-.328125.503906-.675781.707031-1.046875l9.359375-17.113282 9.359375 17.113282c.691406 1.261718 1.726562 2.296875 2.988281 2.988281l17.113281 9.359375zm0 0"/></svg>