<svg clip-rule="evenodd" fill-rule="evenodd" height="512" image-rendering="optimizeQuality" shape-rendering="geometricPrecision" text-rendering="geometricPrecision" viewBox="0 0 1707 1707" width="512" xmlns="http://www.w3.org/2000/svg"><g id="Layer_x0020_1"><path d="m680 1706c-88 0-199-177-218-313-25-180 20-139-72-321-185-364 85-604 463-422 378-182 649 58 464 422-92 181-47 140-72 321-20 146-152 352-246 307-49-23-66-105-66-123v-216c0-169-159-173-159 0l-1 222c-4 32-26 123-93 123zm-72-1079c-222 0-301 195-183 426 97 191 52 157 77 334 19 137 137 301 189 277 19-9 36-43 43-85v-218c0-226 239-222 239 0v215c2 27 23 116 79 82 60-36 137-156 153-271 25-177-20-143 77-334 170-333-74-535-419-363-6 3-13 3-18 0-84-42-166-63-237-63z"/><path d="m483 926c-11 0-20-9-20-20 0-102 83-185 186-185 26 0 26 40 0 40-81 0-146 65-146 145 0 11-9 20-20 20z"/><path d="m1224 926c-11 0-20-9-20-20 0-80-66-145-146-145-26 0-26-40 0-40 102 0 186 83 186 185 0 11-9 20-20 20z"/><path d="m853 815c-171 0-214-193-184-217 22-18 151 36 184 52 33-16 163-70 185-52 30 24-14 217-185 217zm-151-177c7 77 72 137 151 137s144-60 152-137c-46 10-94 28-143 52-5 3-12 3-18 0-48-24-96-42-142-52z"/><path d="m1027 209h-347c-19 0-34-14-39-35l-28-131c-5-23 16-43 38-43h404c23 0 44 21 39 43l-29 131c-4 21-19 35-38 35zm-345-40h343l29-129h-401z"/><path d="m971 369h-236c-31 0-57-26-57-58v-122c0-12 9-20 20-20h311c11 0 20 8 20 20v122c0 32-26 58-58 58zm-253-160v102c0 10 8 18 17 18h236c10 0 18-8 18-18v-102z"/><path d="m888 540h-68c-33 0-61-27-61-61v-130c0-11 9-20 20-20h150c11 0 20 9 20 20v130c0 34-27 61-61 61zm-89-171v110c0 12 10 21 21 21h68c12 0 21-9 21-21v-110z"/><path d="m1060 124h-207c-26 0-26-40 0-40h207c26 0 26 40 0 40z"/><path d="m854 747c-11 0-20-9-20-20v-207c0-26 40-26 40 0v207c0 11-9 20-20 20z"/><path d="m978 585c-18 0-26-22-14-35l65-65c18-18 47 10 28 29s-63 71-79 71z"/><path d="m730 585c-15 0-59-51-79-71-18-19 10-47 29-29l65 65c12 13 3 35-15 35z"/></g></svg>