<svg height="512" viewBox="0 0 64 64" width="512" xmlns="http://www.w3.org/2000/svg"><g id="Layer_16" data-name="Layer 16"><path d="m63 17a15.994 15.994 0 0 0 -31.191-4.994 16.727 16.727 0 0 0 -6.809 1.518 16.97 16.97 0 0 0 -9.073-1.4 17.146 17.146 0 0 0 -14.8 14.759 16.971 16.971 0 0 0 1.533 9.417 36.05 36.05 0 0 1 2.6 6.861l3.866 15.468a5.77 5.77 0 0 0 10.983.673l3.107-8.076a1.911 1.911 0 0 1 3.569 0l3.106 8.074a5.77 5.77 0 0 0 10.983-.673l3.866-15.462a36.05 36.05 0 0 1 2.6-6.861 16.908 16.908 0 0 0 1.192-3.382 16.019 16.019 0 0 0 14.468-15.922zm-2 0a13.884 13.884 0 0 1 -.16 2h-3.84v-4h3.84a13.884 13.884 0 0 1 .16 2zm-14-14a14.02 14.02 0 0 1 13.41 10h-4.41a1 1 0 0 0 -1 1v2h-4v-2a1 1 0 0 0 -1-1h-6a1 1 0 0 0 -1 1v2h-4v-2a1 1 0 0 0 -1-1h-4.41a14.02 14.02 0 0 1 13.41-10zm2 12v4h-4v-4zm-16 2a13.884 13.884 0 0 1 .16-2h3.84v4h-3.84a13.884 13.884 0 0 1 -.16-2zm9.8 25.681-3.867 15.464a3.77 3.77 0 0 1 -7.176.438l-3.106-8.075a3.911 3.911 0 0 0 -7.3 0l-3.106 8.075a3.77 3.77 0 0 1 -7.176-.438l-3.869-15.464a37.995 37.995 0 0 0 -2.738-7.243 14.962 14.962 0 0 1 -1.348-8.31 14.977 14.977 0 0 1 21.447-11.6.991.991 0 0 0 .876 0 14.806 14.806 0 0 1 5.851-1.507 15.937 15.937 0 0 0 15.168 18.951 14.8 14.8 0 0 1 -.919 2.466 37.995 37.995 0 0 0 -2.737 7.243zm4.2-11.681a14.02 14.02 0 0 1 -13.41-10h4.41a1 1 0 0 0 1-1v-2h4v2a1 1 0 0 0 1 1h6a1 1 0 0 0 1-1v-2h4v2a1 1 0 0 0 1 1h4.41a14.02 14.02 0 0 1 -13.41 10z"/><path d="m6 29.643h2a10.011 10.011 0 0 1 10-10v-2a12.013 12.013 0 0 0 -12 12z"/><path d="m34 16h2v2h-2z"/><path d="m46 16h2v2h-2z"/><path d="m58 16h2v2h-2z"/></g></svg>