<svg id="Layer_1" viewBox="0 0 512 512" xmlns="http://www.w3.org/2000/svg" data-name="Layer 1"><path d="m445.682 307.053h-73.73a39.421 39.421 0 0 0 -39.067 34.553l-1.5 12.246c-6.572 53.639-42.594 77.653-75.378 77.657h-.007c-32.79 0-68.822-24.013-75.409-77.658l-1.5-12.238a39.356 39.356 0 0 0 -39.038-34.56h-73.763c-16.271 0-29.509 11.636-29.509 25.938v153.071c0 14.3 13.238 25.938 29.509 25.938h379.392c16.287 0 29.537-11.636 29.537-25.938v-153.071c0-14.302-13.25-25.938-29.537-25.938zm15.534 179.009c0 6.469-7.114 11.934-15.534 11.934h-379.392c-8.405 0-15.506-5.465-15.506-11.934v-153.071c0-6.469 7.1-11.934 15.506-11.934h73.758a25.342 25.342 0 0 1 25.139 22.254l1.5 12.246c3.407 27.747 14.4 50.961 31.781 67.133a84.3 84.3 0 0 0 57.532 22.823h.011a84.286 84.286 0 0 0 57.519-22.832c17.376-16.171 28.357-39.383 31.756-67.124l1.5-12.24a25.09 25.09 0 0 1 25.168-22.26h73.73c8.42 0 15.534 5.465 15.534 11.934zm-89.666-267.894a7 7 0 0 1 9.889-.5l18.261 16.522v-90.328a7 7 0 1 1 14 0v90.328l18.265-16.518a7 7 0 0 1 9.393 10.385l-29.963 27.1a7 7 0 0 1 -9.393 0l-29.962-27.1a7 7 0 0 1 -.49-9.889zm-300.942 9.889a7 7 0 1 1 9.392-10.385l18.265 16.518v-90.328a7 7 0 1 1 14 0v90.328l18.265-16.518a7 7 0 1 1 9.393 10.385l-29.963 27.1a7 7 0 0 1 -9.393 0zm226.514-188.609a7 7 0 0 1 6.726-7.267c13.22-.508 22.95 2.953 28.921 10.3 6.968 8.57 8.192 21.423 3.74 39.3a7 7 0 1 1 -13.588-3.382c3.222-12.937 2.87-22.3-1.017-27.081-3.042-3.739-8.937-5.469-17.515-5.137a6.989 6.989 0 0 1 -7.267-6.733zm-136.403 94.852c3.567 7.879 6.385 14.1 8.237 24.529a7 7 0 0 0 6.894 5.779h4.138v21.692a17.169 17.169 0 0 0 17.15 17.15h5.229l1.711 13.94-.718-.111a7 7 0 1 0 -2.126 13.84l4.617.71 2.987 24.333-5.478-.841a7 7 0 1 0 -2.126 13.839l9.376 1.441 2.987 24.334-10.237-1.573a7 7 0 1 0 -2.126 13.84l14.136 2.172 2.987 24.333-15-2.3a7 7 0 1 0 -2.126 13.84l18.895 2.9.107.865c3.619 29.538 20.571 42.76 35.764 42.76 13.384 0 28.126-10.267 33.924-32.9l18.687 2.871a7 7 0 1 0 2.127-13.84l-18.49-2.841 2.872-23.433 13.491 2.073a7 7 0 1 0 2.127-13.84l-13.913-2.138 2.872-23.433 8.914 1.37a7.107 7.107 0 0 0 1.072.083 7 7 0 0 0 1.055-13.923l-9.335-1.441 2.873-23.432 4.337.666a7 7 0 1 0 2.127-13.84l-4.76-.731 3.627-29.6h5.257a17.169 17.169 0 0 0 17.149-17.15v-21.681h4.111a7 7 0 0 0 6.891-5.766c1.864-10.386 4.664-16.586 8.208-24.437 1.322-2.927 2.689-5.955 4.152-9.493 18.163-43.792 19.742-80.008 4.448-101.977-11.271-16.192-30.505-23.887-57.192-22.846-10.4.4-18.36 3.094-26.059 5.7-6.621 2.239-12.881 4.355-20.583 4.939-7.683-.584-13.936-2.7-20.548-4.935-7.7-2.6-15.662-5.3-26.067-5.7-26.691-1.038-45.944 6.651-57.219 22.85-15.294 21.968-13.715 58.181 4.448 101.975 1.454 3.496 2.809 6.488 4.119 9.378zm95.281 243.464c-8.574 0-18.259-8.508-21.417-27.4l41.427 6.364c-4.062 14.449-12.466 21.036-20.01 21.036zm22.4-34.835-45.664-7.016-2.988-24.333 51.524 7.916zm4.576-37.338-55-8.45-2.987-24.334 60.86 9.35zm4.577-37.338-64.337-9.885-2.987-24.333 70.2 10.785zm4.576-37.337-73.671-11.316-1.983-16.149h79.025zm25.879-44.616a3.188 3.188 0 0 1 -3.146 3.146h-117.724a3.189 3.189 0 0 1 -3.147-3.146v-21.688h124.017zm-154.364-155.352c8.371-12.025 23.579-17.689 45.185-16.863 8.38.326 15.055 2.583 22.122 4.974 7.3 2.468 14.846 5.021 24.565 5.674a7.741 7.741 0 0 0 .939 0c9.736-.654 17.292-3.208 24.6-5.679 7.067-2.388 13.742-4.644 22.117-4.97 21.6-.844 36.791 4.835 45.158 16.855 12.291 17.654 10.144 49.951-5.892 88.618-1.381 3.337-2.7 6.262-3.978 9.09-3.145 6.965-5.934 13.14-8.031 21.96h-148.875c-2.1-8.871-4.908-15.079-8.078-22.079-1.266-2.8-2.576-5.688-3.943-8.978-16.033-38.65-18.179-70.95-5.889-88.602z"/></svg>