<svg width="1021" height="1039" viewBox="0 0 1021 1039" fill="none" xmlns="http://www.w3.org/2000/svg">
<path d="M996.552 726.496C1009.48 741.082 1011.12 762.412 1000.93 779.046C990.934 795.33 971.896 803.423 953.353 799.027C918.208 790.635 877.147 777.498 833.55 756.518C808.198 744.33 785.132 730.992 764.304 717.256C690.483 668.602 599.363 660.759 516.747 692.029C498.901 698.772 479.513 704.767 458.635 709.413C398.535 722.85 345.842 721.052 307.223 715.857C284.207 712.76 262.384 705.616 242.052 694.427C208.399 675.895 169.624 650.369 130.601 615.252C69.9053 560.654 30.4843 502.609 5.48047 457.003C-4.21309 439.369 -0.733329 417.541 13.4342 403.304C27.6019 389.067 49.325 385.571 66.8727 395.311C112.209 420.437 169.973 460.05 224.356 521.042C239.567 538.125 252.939 555.11 264.77 571.693C298.027 618.348 357.829 637.131 410.775 615.651L411.819 615.202C516.807 572.742 613.995 565.649 683.084 567.747C689.894 567.947 696.107 568.496 702.819 569.445C755.115 577.138 842.511 598.118 927.316 662.307C955.204 683.436 978.06 705.566 996.552 726.496ZM950.718 991.946H60.2495C47.3747 991.946 36.8364 1002.54 36.8364 1015.47C36.8364 1028.41 47.375 1039 60.2495 1039H950.718C963.593 1039 974.131 1028.41 974.131 1015.47C974.131 1002.54 963.593 991.946 950.718 991.946ZM482.049 261.99C494.974 274.978 515.952 274.978 528.926 261.99C541.851 249.003 541.851 227.922 528.926 214.885L341.474 26.5203C328.549 13.533 307.571 13.533 294.597 26.5203C281.672 39.5076 281.672 60.5884 294.597 73.6256L482.049 261.99ZM482.049 61.8352C475.587 61.8352 470.317 67.1301 470.317 73.624C470.317 80.1178 475.587 85.4129 482.049 85.4129C488.512 85.4129 493.781 80.118 493.781 73.624C493.781 67.1302 488.512 61.8352 482.049 61.8352ZM517.343 169.932L386.203 38.1534C403.304 16.923 429.302 2.98683 458.631 2.98683C510.181 2.98683 552.385 45.3964 552.385 97.1974C552.385 126.67 538.516 152.795 517.389 169.978L517.343 169.932ZM517.194 73.5731C517.194 54.0922 501.386 38.257 482.049 38.257C462.712 38.257 446.904 54.0922 446.904 73.5731C446.904 93.0541 462.712 108.889 482.049 108.889C501.386 108.889 517.194 93.0541 517.194 73.5731ZM575.753 97.1002C575.753 113.585 571.975 129.469 565.463 144.206H574.362C614.18 144.206 646.044 112.186 646.044 72.1742C646.044 27.4167 606.226 -6.45059 562.132 1.0418C558.851 1.49137 555.57 1.9909 552.289 2.94002C545.926 4.38863 540.11 6.23686 534.294 8.03521C559.448 29.6646 575.702 61.3349 575.702 97.0999L575.753 97.1002ZM920.192 450.313H967.716C941.966 279.672 825.39 139.505 668.556 81.1154C667.015 97.2997 661.894 112.435 653.344 125.273C791.586 177.423 895.136 300.351 920.143 450.366L920.192 450.313ZM502.669 807.273C503.613 805.874 504.558 804.925 505.502 803.526C530.357 770.008 541.99 735.191 547.409 706.918C539.902 709.016 532.445 711.164 524.989 714.011C505.056 721.554 484.426 727.698 463.696 732.344C411.301 744.033 357.615 746.23 304.126 739.088C296.918 738.089 290.008 735.941 282.999 734.242C289.909 756.272 300.646 780.349 318.045 803.527C318.989 804.925 319.934 805.874 320.878 807.273C342.452 835.047 376.653 850.582 411.798 850.582C446.944 850.582 481.144 835.047 502.719 807.273L502.669 807.273ZM950.709 532.731C944.247 532.731 938.977 538.026 938.977 544.52C938.977 551.014 944.247 556.308 950.709 556.308C957.171 556.308 962.441 551.014 962.441 544.52C962.441 538.026 957.171 532.731 950.709 532.731ZM1021 520.942V692.376C1021 700.918 1019.91 709.21 1018.07 717.202C1016.62 715.104 1015.73 712.756 1014.04 710.808C992.067 685.932 967.611 663.304 941.363 643.423C907.212 617.598 869.433 596.267 829.266 579.832C830.708 575.886 831.901 572.04 833.541 568.044C843.831 542.119 855.115 518.591 866.798 497.411C874.751 482.325 890.708 473.884 907.56 473.884H974.123C999.922 473.884 1021 495.063 1021 520.989L1021 520.942ZM985.854 544.469C985.854 524.988 970.046 509.153 950.709 509.153C931.372 509.153 915.564 524.988 915.564 544.469C915.564 563.95 931.372 579.785 950.709 579.785C970.046 579.785 985.854 563.95 985.854 544.469ZM364.869 865.265V968.317H458.623V865.265C443.66 870.51 428.052 874.106 411.746 874.106C395.44 874.106 379.832 870.51 364.869 865.265Z" fill="#380920"/>
</svg>
