<svg xmlns="http://www.w3.org/2000/svg" version="1.1" viewBox="-5.0 -10.0 110.0 135.0">
 <path d="m88.195 66.184c1.0156 1.1406 1.1445 2.8086 0.34375 4.1094-0.78516 1.2734-2.2812 1.9062-3.7383 1.5625-2.7617-0.65625-5.9883-1.6836-9.4141-3.3242-1.9922-0.95312-3.8047-1.9961-5.4414-3.0703-5.8008-3.8047-12.961-4.418-19.453-1.9727-1.4023 0.52734-2.9258 0.99609-4.5664 1.3594-4.7227 1.0508-8.8633 0.91016-11.898 0.50391-1.8086-0.24219-3.5234-0.80078-5.1211-1.6758-2.6445-1.4492-5.6914-3.4453-8.7578-6.1914-4.7695-4.2695-7.8672-8.8086-9.832-12.375-0.76172-1.3789-0.48828-3.0859 0.625-4.1992 1.1133-1.1133 2.8203-1.3867 4.1992-0.625 3.5625 1.9648 8.1016 5.0625 12.375 9.832 1.1953 1.3359 2.2461 2.6641 3.1758 3.9609 2.6133 3.6484 7.3125 5.1172 11.473 3.4375l0.082032-0.035156c8.25-3.3203 15.887-3.875 21.316-3.7109 0.53516 0.015625 1.0234 0.058594 1.5508 0.13281 4.1094 0.60156 10.977 2.2422 17.641 7.2617 2.1914 1.6523 3.9883 3.3828 5.4414 5.0195zm-3.6016 20.758h-69.973c-1.0117 0-1.8398 0.82812-1.8398 1.8398s0.82812 1.8398 1.8398 1.8398h69.973c1.0117 0 1.8398-0.82812 1.8398-1.8398s-0.82812-1.8398-1.8398-1.8398zm-36.828-57.082c1.0156 1.0156 2.6641 1.0156 3.6836 0 1.0156-1.0156 1.0156-2.6641 0-3.6836l-14.73-14.73c-1.0156-1.0156-2.6641-1.0156-3.6836 0-1.0156 1.0156-1.0156 2.6641 0 3.6836zm0-15.652c-0.50781 0-0.92188 0.41406-0.92188 0.92188 0 0.50781 0.41406 0.92188 0.92188 0.92188s0.92188-0.41406 0.92188-0.92188c0-0.50781-0.41406-0.92188-0.92188-0.92188zm2.7734 8.4531-10.305-10.305c1.3438-1.6602 3.3867-2.75 5.6914-2.75 4.0508 0 7.3672 3.3164 7.3672 7.3672 0 2.3047-1.0898 4.3477-2.75 5.6914zm-0.011718-7.5352c0-1.5234-1.2422-2.7617-2.7617-2.7617s-2.7617 1.2383-2.7617 2.7617 1.2422 2.7617 2.7617 2.7617 2.7617-1.2383 2.7617-2.7617zm4.6016 1.8398c0 1.2891-0.29688 2.5312-0.80859 3.6836h0.69922c3.1289 0 5.6328-2.5039 5.6328-5.6328 0-3.5-3.1289-6.1484-6.5938-5.5625-0.25781 0.035156-0.51562 0.074219-0.77344 0.14844-0.5 0.11328-0.95703 0.25781-1.4141 0.39844 1.9766 1.6914 3.2539 4.168 3.2539 6.9648zm27.066 27.621h3.7344c-2.0234-13.344-11.184-24.305-23.508-28.871-0.12109 1.2656-0.52344 2.4492-1.1953 3.4531 10.863 4.0781 19 13.691 20.965 25.422zm-32.809 27.914c0.074219-0.10938 0.14844-0.18359 0.22266-0.29297 1.9531-2.6211 2.8672-5.3438 3.293-7.5547-0.58984 0.16406-1.1758 0.33203-1.7617 0.55469-1.5664 0.58984-3.1875 1.0703-4.8164 1.4336-4.1172 0.91406-8.3359 1.0859-12.539 0.52734-0.56641-0.078125-1.1094-0.24609-1.6602-0.37891 0.54297 1.7227 1.3867 3.6055 2.7539 5.418 0.074219 0.10938 0.14844 0.18359 0.22266 0.29297 1.6953 2.1719 4.3828 3.3867 7.1445 3.3867 2.7617 0 5.4492-1.2148 7.1445-3.3867zm35.207-21.469c-0.50781 0-0.92188 0.41406-0.92188 0.92188s0.41406 0.92188 0.92188 0.92188 0.92188-0.41406 0.92188-0.92188-0.41406-0.92188-0.92188-0.92188zm5.5234-0.92188v13.406c0 0.66797-0.085938 1.3164-0.23047 1.9414-0.11328-0.16406-0.18359-0.34766-0.31641-0.5-1.7266-1.9453-3.6484-3.7148-5.7109-5.2695-2.6836-2.0195-5.6523-3.6875-8.8086-4.9727 0.11328-0.30859 0.20703-0.60938 0.33594-0.92188 0.80859-2.0273 1.6953-3.8672 2.6133-5.5234 0.625-1.1797 1.8789-1.8398 3.2031-1.8398h5.2305c2.0273 0 3.6836 1.6562 3.6836 3.6836zm-2.7617 1.8398c0-1.5234-1.2422-2.7617-2.7617-2.7617s-2.7617 1.2383-2.7617 2.7617c0 1.5234 1.2422 2.7617 2.7617 2.7617s2.7617-1.2383 2.7617-2.7617zm-48.797 25.086v8.0586h7.3672v-8.0586c-1.1758 0.41016-2.4023 0.69141-3.6836 0.69141s-2.5078-0.28125-3.6836-0.69141z"/>
<text x="0.0" y="117.5" font-size="5.0" font-weight="bold" font-family="Arbeit Regular, Helvetica, Arial-Unicode, Arial, Sans-serif" fill="#000000">Created by Manda</text><text x="0.0" y="122.5" font-size="5.0" font-weight="bold" font-family="Arbeit Regular, Helvetica, Arial-Unicode, Arial, Sans-serif" fill="#000000">from Noun Project</text></svg>